<?xml version="1.0" standalone="no"?>
<!DOCTYPE svg PUBLIC "-//W3C//DTD SVG 20010904//EN"
 "http://www.w3.org/TR/2001/REC-SVG-20010904/DTD/svg10.dtd">
<svg version="1.0" xmlns="http://www.w3.org/2000/svg"
 width="1378.000000pt" height="1378.000000pt" viewBox="0 0 1378.000000 1378.000000"
 preserveAspectRatio="xMidYMid meet">

<g transform="translate(0.000000,1378.000000) scale(0.100000,-0.100000)"
fill="#000000" stroke="none">
<path d="M5011 11790 c0 -8 4 -22 9 -30 12 -18 12 -2 0 25 -6 13 -9 15 -9 5z"/>
<path d="M6425 11766 c-137 -23 -195 -37 -190 -47 3 -5 0 -6 -8 -3 -20 7 -179
-47 -265 -90 -112 -56 -262 -162 -358 -252 -13 -12 -25 -20 -28 -18 -3 2 -4 1
-1 -2 2 -4 -27 -40 -65 -81 -39 -41 -70 -81 -70 -89 0 -8 -7 -14 -16 -14 -8 0
-12 -4 -9 -10 3 -5 1 -10 -5 -10 -6 0 -9 -4 -5 -10 3 -5 -6 -28 -21 -51 -14
-23 -45 -81 -69 -129 l-42 -88 17 -68 c9 -38 20 -93 23 -121 l6 -53 -59 0 -59
0 -6 -47 c-4 -27 -9 -56 -12 -65 -3 -14 2 -18 21 -18 14 0 27 -4 31 -10 10
-15 -14 -178 -37 -245 -20 -62 -20 -66 -4 -161 9 -53 30 -137 46 -186 19 -62
25 -90 17 -93 -7 -2 -41 -8 -77 -15 -134 -23 -320 -98 -427 -171 -23 -16 -44
-29 -46 -29 -3 0 -18 21 -33 48 -96 165 -288 370 -444 473 -174 116 -368 194
-567 227 l-108 19 -2 54 c-1 30 -4 95 -6 144 -3 81 -7 98 -43 169 -46 92 -146
194 -235 238 -47 24 -168 62 -175 55 -11 -11 -56 -220 -65 -305 -10 -90 -8
-294 3 -376 3 -15 -13 -24 -82 -47 -303 -103 -592 -334 -767 -614 -54 -85
-131 -256 -158 -350 -43 -148 -58 -258 -58 -415 0 -295 75 -550 233 -794 l62
-95 -46 -58 c-256 -327 -89 -794 314 -879 188 -40 389 26 516 170 44 50 114
175 114 203 0 12 14 13 83 6 45 -4 137 -7 205 -6 346 5 700 146 949 377 l67
62 95 -96 c144 -146 292 -237 481 -298 52 -17 106 -32 120 -34 31 -4 30 -6 -6
-163 -24 -107 -27 -140 -28 -305 -1 -144 3 -203 18 -269 10 -47 20 -91 23 -98
4 -9 -5 -13 -28 -13 -83 0 -223 -40 -326 -91 -159 -80 -265 -186 -356 -359
-77 -144 -102 -281 -85 -451 19 -191 103 -364 240 -495 149 -143 317 -216 530
-231 60 -4 85 -9 82 -18 -3 -6 1 -25 7 -41 7 -16 12 -32 11 -36 -3 -12 4 -9
17 5 8 11 6 20 -9 37 -21 24 -22 46 -2 44 7 -1 28 -2 47 -2 28 -2 35 -6 35
-22 0 -11 5 -20 11 -20 15 0 39 26 39 42 0 10 -3 9 -11 -2 -8 -11 -9 -9 -3 10
3 14 7 25 8 25 16 1 146 51 165 64 14 10 60 40 101 67 151 99 258 241 306 406
13 45 24 90 24 100 0 10 5 18 10 18 19 0 12 237 -10 328 -57 237 -216 435
-439 547 l-48 25 24 97 c19 76 26 137 30 266 6 178 -2 274 -38 421 -10 43 -19
80 -19 82 0 1 21 6 48 10 26 3 54 8 62 9 8 2 35 6 60 10 112 18 322 111 427
187 50 37 73 46 73 31 0 -5 4 -14 9 -22 7 -12 21 -4 67 38 97 89 255 151 383
151 69 0 176 -22 236 -49 l45 -20 24 47 c38 75 59 157 51 203 -16 91 -126 160
-327 203 -28 6 -28 7 -28 85 l0 78 38 7 c20 3 55 11 77 18 l40 12 -50 7 c-27
4 -72 8 -98 8 -44 1 -48 3 -42 22 11 33 7 288 -5 348 -5 29 -10 55 -10 56 0 1
61 5 136 8 137 5 167 14 146 40 -9 10 0 25 42 66 l54 53 68 -41 c37 -23 75
-41 85 -41 27 0 175 66 271 121 86 49 86 50 98 102 21 94 14 87 89 87 l69 0
65 70 66 69 63 -42 c168 -113 405 -119 581 -15 29 16 54 32 56 34 8 8 -35 47
-124 113 -111 83 -166 116 -275 165 -47 22 -88 42 -93 46 -4 3 4 38 19 76 63
165 93 306 101 467 l6 117 -29 1 c-24 1 -25 3 -6 6 17 3 22 11 22 36 -1 90
-48 330 -63 320 -6 -4 -7 -1 -3 6 11 17 -53 193 -67 184 -5 -3 -7 -1 -3 5 9
14 -25 83 -37 75 -6 -3 -7 -1 -3 5 3 6 -10 38 -29 71 -36 61 -50 77 -38 44 3
-10 3 -15 -2 -11 -4 4 -8 18 -9 30 -1 14 -10 27 -23 33 -13 5 -23 13 -23 18 0
4 6 5 13 0 6 -4 -3 12 -21 35 -18 23 -38 41 -44 39 -6 -1 -13 5 -15 13 -4 13
-3 13 6 0 6 -8 11 -10 11 -4 0 16 -45 55 -55 47 -4 -5 -5 -3 -2 3 7 13 -69 88
-158 155 -182 137 -354 216 -590 269 -117 27 -375 35 -490 16z m399 -541 c48
-9 113 -24 143 -35 31 -11 60 -17 64 -14 5 3 9 1 9 -4 0 -4 17 -16 38 -26 20
-10 58 -31 83 -47 26 -16 53 -28 60 -27 7 2 13 -1 14 -7 1 -16 15 -35 26 -35
6 0 7 6 3 13 -4 7 -3 9 2 4 5 -5 9 -14 9 -20 1 -7 6 -11 13 -9 7 1 11 -4 10
-10 -2 -7 3 -12 10 -10 8 1 11 -1 8 -6 -3 -5 10 -23 28 -41 24 -24 35 -29 40
-19 4 9 5 9 3 -2 -1 -8 23 -51 52 -94 119 -175 165 -326 165 -536 0 -196 -40
-334 -140 -492 -54 -84 -170 -207 -249 -263 -206 -146 -464 -205 -705 -160
-52 10 -107 19 -122 19 -14 1 -24 4 -21 9 2 4 0 7 -6 7 -5 0 -17 3 -27 7 -13
5 -15 3 -9 -7 5 -9 4 -11 -4 -6 -6 4 -9 11 -6 16 3 4 -12 15 -33 23 -58 23
-179 108 -254 176 -37 34 -70 61 -74 59 -4 -2 -8 4 -9 12 -4 19 -92 150 -97
144 -3 -2 -5 2 -5 9 0 6 -15 48 -33 92 -53 130 -73 248 -67 395 7 171 46 304
124 434 20 33 36 65 36 73 0 7 2 11 5 8 6 -5 82 86 79 96 -1 4 1 6 4 5 3 0 13
5 23 13 13 11 14 17 4 30 -11 14 -11 14 3 3 14 -11 22 -8 49 14 24 20 28 29
18 36 -9 5 -5 7 12 6 16 -2 25 2 25 12 0 8 7 15 15 15 8 0 44 17 80 37 175 99
402 138 604 103z m770 -661 c3 -8 2 -12 -4 -9 -6 3 -10 10 -10 16 0 14 7 11
14 -7z m216 -279 c0 -2 -10 -9 -22 -15 -22 -11 -22 -10 -4 4 21 17 26 19 26
11z m-50 -39 c0 -2 -8 -10 -17 -17 -16 -13 -17 -12 -4 4 13 16 21 21 21 13z
m-73 -68 c-3 -8 -6 -5 -6 6 -1 11 2 17 5 13 3 -3 4 -12 1 -19z m-3456 -453
c10 -38 16 -71 14 -73 -2 -3 -16 5 -31 17 -22 18 -30 19 -40 9 -6 -7 -150
-215 -319 -463 -170 -247 -315 -458 -324 -468 -16 -17 -26 -8 -177 159 -87 97
-173 193 -190 212 l-30 35 -312 -161 c-171 -89 -314 -162 -316 -162 -3 0 -12
13 -21 29 l-15 30 228 117 c125 64 277 143 338 176 l112 58 177 -197 c98 -109
181 -199 184 -200 6 -2 601 862 608 883 2 6 -8 16 -22 24 -14 7 -25 16 -25 20
0 7 116 29 135 25 5 -1 17 -32 26 -70z m-229 -890 l-2 -505 -140 0 -140 0 0
305 0 306 138 199 c75 110 139 200 142 200 3 0 4 -227 2 -505z m2043 268 c11
-6 33 -25 48 -41 l29 -30 -69 -45 c-128 -83 -633 -398 -647 -403 -7 -3 -100
52 -207 123 -107 71 -223 147 -259 170 l-65 42 -10 101 c-6 56 -10 102 -9 103
1 1 265 0 586 -3 417 -4 589 -8 603 -17z m-2841 -111 l66 -73 0 -294 0 -295
-145 0 -145 0 0 330 0 329 73 41 c39 22 75 39 79 37 4 -1 36 -35 72 -75z
m-314 -357 l0 -306 -142 3 -143 3 0 230 0 230 135 72 c74 40 138 73 143 73 4
0 7 -137 7 -305z m3231 -453 c-23 -46 -46 -67 -94 -87 -31 -13 -118 -15 -634
-15 -561 0 -601 2 -639 19 -22 10 -50 31 -62 46 l-21 27 43 86 c78 156 146
388 146 501 0 23 4 41 10 41 5 0 123 -75 262 -167 139 -93 256 -169 260 -171
4 -2 71 37 150 86 79 50 244 154 368 231 l225 142 3 -351 c2 -328 1 -353 -17
-388z m-2590 485 c9 10 35 46 58 81 23 34 44 62 46 62 3 0 5 -108 5 -240 l0
-240 -140 0 -140 0 0 243 1 242 77 -83 c73 -80 78 -83 93 -65z m1764 -2282
c163 -34 311 -146 387 -291 50 -95 68 -170 68 -282 0 -157 -56 -287 -171 -399
-68 -65 -155 -118 -238 -143 -78 -25 -221 -27 -306 -5 -186 47 -346 197 -406
380 -33 98 -33 250 -2 350 40 127 127 239 244 315 126 81 272 107 424 75z"/>
<path d="M6560 11044 c-69 -12 -150 -37 -150 -47 0 -6 -3 -8 -6 -4 -15 15
-179 -77 -168 -94 3 -5 -1 -6 -9 -3 -8 3 -20 -3 -28 -12 -8 -10 -9 -15 -2 -11
6 4 14 3 18 -2 3 -6 -3 -8 -15 -6 -24 5 -94 -60 -84 -77 4 -6 3 -8 -3 -5 -14
9 -66 -60 -57 -75 4 -7 3 -8 -4 -4 -12 7 -65 -87 -55 -98 4 -3 1 -6 -5 -6 -14
0 -44 -103 -36 -127 5 -15 4 -15 -5 -3 -6 8 -11 11 -11 5 0 -5 -5 -50 -10 -99
-8 -62 -7 -113 0 -169 13 -89 61 -233 78 -230 6 2 9 -3 6 -11 -7 -19 55 -118
68 -109 6 3 8 1 5 -4 -9 -14 32 -65 44 -57 5 3 8 0 7 -8 -2 -7 3 -12 10 -10 8
1 11 -2 8 -6 -8 -13 30 -45 44 -37 6 3 9 1 8 -6 -2 -7 22 -30 52 -51 56 -38
77 -47 64 -26 -4 7 -3 8 5 4 6 -4 9 -11 6 -16 -3 -5 19 -17 48 -28 285 -107
551 -64 785 126 26 21 41 41 38 49 -3 8 -2 12 3 9 11 -7 65 50 58 61 -3 5 -1
15 5 23 8 12 9 11 4 -5 -11 -34 29 22 62 90 64 129 76 178 76 330 1 120 -3
151 -23 217 -14 45 -28 75 -34 71 -6 -3 -7 -1 -4 5 10 15 -3 43 -16 35 -6 -3
-7 -1 -3 6 15 23 -133 229 -155 215 -5 -3 -8 0 -7 7 4 15 -133 110 -150 104
-7 -3 -11 -1 -8 4 7 10 -42 33 -55 26 -5 -4 -9 -2 -9 4 0 23 -133 52 -250 56
-63 2 -126 2 -140 -1z m291 -120 c46 -14 92 -26 101 -27 9 -1 14 -5 12 -9 -5
-7 4 -10 22 -7 4 0 10 -3 13 -8 14 -20 79 -62 86 -55 3 4 5 2 4 -3 -4 -15 92
-106 104 -98 6 3 7 1 3 -5 -9 -15 23 -64 37 -55 6 3 7 1 3 -5 -4 -6 3 -30 15
-54 65 -127 87 -298 55 -437 -16 -70 -73 -198 -103 -233 -8 -9 -16 -24 -17
-32 -1 -9 -6 -16 -10 -16 -4 1 -36 -26 -72 -59 -36 -34 -69 -61 -75 -61 -6 0
-7 -6 -3 -12 4 -7 4 -10 0 -6 -4 3 -40 -8 -79 -26 -109 -49 -161 -61 -277 -60
-154 0 -270 40 -394 133 -35 27 -68 46 -72 43 -4 -4 -4 -2 -1 4 3 6 -4 21 -17
35 -12 13 -33 41 -47 61 -14 21 -28 35 -31 32 -3 -3 -6 1 -5 8 1 7 -9 34 -21
59 -41 87 -55 158 -56 291 -1 69 2 124 6 122 5 -3 8 3 8 13 0 15 16 56 57 152
5 10 2 12 -8 6 -8 -4 -12 -6 -9 -2 3 3 10 7 15 8 6 2 21 19 33 39 13 19 37 49
53 66 16 17 26 33 23 37 -4 4 -2 7 4 7 7 0 37 20 67 44 155 127 382 170 576
110z m269 -114 c0 -5 -5 -10 -11 -10 -5 0 -7 5 -4 10 3 6 8 10 11 10 2 0 4 -4
4 -10z m-1000 -44 c0 -2 -8 -10 -17 -17 -16 -13 -17 -12 -4 4 13 16 21 21 21
13z m1177 -841 c0 -8 -4 -12 -9 -9 -5 3 -6 10 -3 15 9 13 12 11 12 -6z m-214
-150 c-10 -13 -22 -25 -27 -25 -5 0 1 11 14 25 30 32 36 32 13 0z m-891 -2
c-6 -2 -10 -9 -6 -14 3 -5 0 -9 -5 -9 -12 0 -14 13 -4 23 3 4 11 7 17 6 6 0 5
-3 -2 -6z"/>
<path d="M6638 10770 c3 -24 1 -30 -14 -30 -64 0 -134 -103 -134 -197 0 -66
26 -137 48 -128 12 4 12 3 3 -8 -9 -11 -8 -17 2 -26 8 -6 17 -8 21 -4 4 4 4 1
1 -8 -7 -18 58 -84 73 -75 6 3 14 1 18 -5 4 -8 3 -9 -4 -5 -7 4 -12 2 -12 -3
0 -11 15 -15 35 -11 6 1 7 -2 2 -6 -10 -10 23 -45 36 -37 5 3 7 1 4 -4 -4 -6
1 -17 10 -24 9 -8 25 -33 35 -57 21 -46 18 -94 -7 -122 -8 -8 -14 -19 -14 -24
0 -5 -18 -11 -39 -13 -31 -3 -44 1 -66 24 -15 15 -32 45 -38 68 l-11 42 -51
-5 c-28 -2 -53 -6 -55 -8 -2 -2 0 -23 3 -48 7 -47 60 -136 85 -144 8 -3 11 0
7 7 -4 6 -2 11 4 11 7 0 9 -7 6 -16 -4 -10 3 -18 24 -26 24 -8 30 -16 30 -39
0 -28 1 -29 50 -29 48 0 50 1 50 28 0 23 8 30 51 49 33 15 48 26 43 34 -4 7
-3 9 4 5 6 -3 16 3 23 15 10 19 9 21 -5 16 -10 -4 -15 -3 -11 3 3 6 13 10 20
10 19 0 30 41 29 106 0 52 -20 114 -36 114 -5 0 -7 4 -4 8 9 15 -40 76 -116
144 -42 37 -79 64 -84 60 -5 -4 -6 -3 -2 2 4 5 -2 25 -14 44 -28 46 -31 131
-5 159 9 11 15 22 12 25 -3 2 13 4 34 4 48 -1 78 -27 87 -73 4 -22 11 -32 19
-29 7 2 33 8 59 11 25 4 46 10 46 14 0 47 -61 148 -81 135 -5 -3 -8 0 -7 8 2
7 -11 17 -29 22 -21 7 -33 16 -33 28 0 10 -6 18 -12 18 -9 0 -8 4 2 10 11 7
-1 10 -41 10 l-56 0 5 -30z"/>
<path d="M5060 6244 c-197 -53 -334 -249 -317 -454 15 -179 139 -334 306 -384
233 -69 484 68 546 298 27 101 18 225 -23 308 -93 189 -308 286 -512 232z
m139 -194 c7 -74 17 -149 22 -166 l10 -32 121 -13 c137 -14 133 -23 -14 -34
-76 -6 -101 -11 -114 -26 -22 -25 -69 -24 -94 1 -24 24 -25 48 -6 76 9 12 21
87 32 193 10 95 21 165 24 154 4 -10 12 -79 19 -153z"/>
<path d="M5190 11257 c0 -2 15 -14 33 -27 20 -15 27 -17 18 -6 -13 16 -51 41
-51 33z"/>
<path d="M5350 11160 c8 -5 20 -10 25 -10 6 0 3 5 -5 10 -8 5 -19 10 -25 10
-5 0 -3 -5 5 -10z"/>
<path d="M7017 8373 c-4 -3 -4 -41 -1 -85 17 -268 218 -480 485 -513 59 -7
191 9 240 29 26 11 28 14 16 30 -13 18 -17 18 -78 2 -118 -29 -224 -17 -339
38 -85 40 -186 140 -223 220 -34 72 -59 176 -55 229 2 33 -1 41 -19 48 -11 4
-23 5 -26 2z"/>
<path d="M7133 8270 c16 -152 129 -296 277 -354 78 -31 267 -31 276 -1 7 21
-174 196 -277 268 -74 51 -249 147 -269 147 -10 0 -11 -14 -7 -60z"/>
<path d="M6479 7722 c-83 -28 -151 -69 -204 -122 l-48 -49 39 -58 c55 -84 255
-279 353 -345 84 -57 84 -57 101 -36 23 29 47 17 56 -27 3 -20 13 -39 20 -42
8 -3 11 -10 7 -16 -4 -7 0 -8 11 -4 10 4 19 7 21 7 2 0 14 18 26 40 23 41 45
54 35 23 -3 -10 -8 -34 -11 -54 -7 -36 -6 -37 37 -52 87 -32 84 -32 113 18 50
85 67 159 62 270 -3 72 -10 115 -26 156 -29 71 -86 147 -131 172 -19 10 -48
34 -65 51 -67 73 -273 108 -396 68z"/>
<path d="M7116 7695 c-33 -14 -61 -27 -64 -30 -3 -2 9 -20 27 -40 43 -49 98
-162 116 -237 30 -130 12 -278 -49 -399 -18 -36 -28 -66 -22 -66 6 0 38 -6 71
-12 33 -7 132 -15 219 -18 l160 -6 25 -30 c84 -100 208 -173 334 -196 53 -9
46 -18 67 82 17 80 28 307 20 394 -10 95 -36 229 -56 284 -7 22 -11 39 -9 39
5 0 -29 80 -77 178 -22 45 -46 82 -53 82 -7 0 -27 -10 -46 -23 -45 -29 -93
-122 -122 -233 l-24 -89 -75 -3 -75 -3 -23 88 c-29 113 -70 193 -117 232 -34
28 -44 31 -103 31 -46 -1 -83 -8 -124 -25z"/>
<path d="M7858 7713 c7 -3 16 -2 19 1 4 3 -2 6 -13 5 -11 0 -14 -3 -6 -6z"/>
<path d="M8070 7646 c0 -2 7 -7 16 -10 8 -3 12 -2 9 4 -6 10 -25 14 -25 6z"/>
<path d="M6012 7255 c0 -16 2 -22 5 -12 2 9 2 23 0 30 -3 6 -5 -1 -5 -18z"/>
<path d="M6131 7264 c0 -11 3 -14 6 -6 3 7 2 16 -1 19 -3 4 -6 -2 -5 -13z"/>
<path d="M6734 7096 c-4 -11 -2 -21 7 -27 18 -11 24 5 10 28 -9 17 -10 17 -17
-1z"/>
<path d="M6851 7029 c-21 -28 -21 -30 -3 -20 11 6 22 20 25 31 7 26 5 26 -22
-11z"/>
<path d="M6568 6523 c28 -2 76 -2 105 0 28 2 5 3 -53 3 -58 0 -81 -1 -52 -3z"/>
<path d="M6518 6183 c56 -2 148 -2 205 0 56 1 10 3 -103 3 -113 0 -159 -2
-102 -3z"/>
<path d="M9554 5636 c-78 -34 -139 -122 -164 -237 -19 -85 -9 -279 19 -350 44
-114 127 -179 231 -179 104 0 188 64 229 174 22 58 47 238 36 256 -4 6 -64 10
-146 10 l-139 0 0 -70 0 -70 68 0 69 0 -7 -42 c-17 -112 -97 -153 -165 -85
-39 39 -55 102 -55 217 0 182 54 270 147 239 33 -10 63 -51 63 -84 0 -8 7 -15
15 -15 26 0 125 54 125 67 0 21 -35 85 -63 115 -58 63 -183 89 -263 54z"/>
<path d="M8530 5261 l0 -381 113 0 c140 0 198 16 260 70 90 79 131 224 109
385 -19 148 -71 229 -177 277 -42 19 -72 23 -177 26 l-128 4 0 -381z m250 216
c63 -41 75 -77 75 -212 0 -102 -3 -126 -21 -160 -25 -47 -76 -85 -115 -85
l-29 0 0 240 0 240 29 0 c15 0 43 -10 61 -23z"/>
<path d="M9120 5260 l0 -380 75 0 75 0 0 380 0 380 -75 0 -75 0 0 -380z"/>
<path d="M10010 5260 l0 -380 75 0 75 0 0 380 0 380 -75 0 -75 0 0 -380z"/>
<path d="M10248 5570 l4 -70 54 0 54 0 0 -310 0 -310 80 0 80 0 0 310 0 310
55 0 55 0 0 70 0 70 -192 0 -193 0 3 -70z"/>
<path d="M10781 5593 c-5 -27 -44 -194 -85 -372 -42 -178 -76 -328 -76 -332 0
-5 33 -9 74 -9 83 0 74 -9 92 93 l6 37 79 0 c62 0 79 -3 79 -15 0 -7 5 -37 11
-65 l11 -50 75 0 c73 0 75 1 71 23 -3 12 -40 183 -84 380 l-79 357 -82 0 -81
0 -11 -47z m115 -308 c8 -60 18 -120 21 -132 5 -22 2 -23 -47 -23 -51 0 -52 0
-46 28 3 15 13 81 22 147 18 134 26 165 31 120 2 -16 10 -79 19 -140z"/>
<path d="M11180 5260 l0 -380 158 0 c87 0 161 2 163 4 2 2 3 36 1 75 l-4 71
-84 0 -84 0 0 305 0 305 -75 0 -75 0 0 -380z"/>
<path d="M5211 4924 c0 -11 3 -14 6 -6 3 7 2 16 -1 19 -3 4 -6 -2 -5 -13z"/>
<path d="M5328 4903 c7 -3 16 -2 19 1 4 3 -2 6 -13 5 -11 0 -14 -3 -6 -6z"/>
<path d="M5396 4865 c8 -37 14 -45 14 -19 0 10 -5 26 -10 34 -8 11 -9 7 -4
-15z"/>
<path d="M5196 4865 c-9 -26 -7 -32 5 -12 6 10 9 21 6 23 -2 3 -7 -2 -11 -11z"/>
<path d="M5204 4812 c15 -18 15 -20 -4 -37 -15 -14 -20 -30 -19 -69 1 -28 4
-42 6 -32 6 23 27 46 42 46 16 0 13 17 -4 24 -8 3 -15 1 -15 -5 0 -6 -4 -7
-10 -4 -5 3 -10 11 -10 17 0 6 3 8 7 5 3 -4 13 -1 21 6 13 10 14 9 7 -2 -5 -9
-4 -12 2 -8 20 13 0 77 -25 77 -13 0 -13 -2 2 -18z"/>
<path d="M5410 4783 c-1 -57 -10 -206 -14 -233 -6 -35 -6 -35 4 -5 12 35 26
245 16 245 -3 0 -6 -3 -6 -7z"/>
<path d="M5196 4644 c-8 -21 -8 -49 1 -41 7 7 14 57 8 57 -1 0 -6 -7 -9 -16z"/>
<path d="M5193 4577 c-3 -6 -1 -7 4 -4 13 8 36 -45 30 -70 -3 -12 -5 -9 -6 9
0 15 -6 30 -12 34 -7 4 -9 0 -6 -12 3 -11 11 -38 18 -62 7 -24 21 -48 31 -53
10 -5 18 -17 17 -27 0 -14 -2 -14 -9 3 -5 11 -9 15 -9 9 -1 -16 23 -64 32 -64
5 0 6 -4 3 -9 -3 -5 0 -14 8 -20 10 -9 15 -8 20 4 4 11 2 14 -7 10 -6 -4 -5 0
5 7 10 9 15 24 12 43 -3 28 -3 28 5 5 l8 -25 12 28 c13 34 14 40 2 32 -5 -3
-12 -1 -16 5 -4 6 -10 8 -13 6 -4 -2 -6 13 -4 35 3 24 0 39 -7 39 -11 0 -16
-26 -13 -62 1 -10 -3 -18 -8 -18 -6 0 -10 18 -10 40 0 27 -4 40 -14 40 -8 0
-18 18 -25 43 -10 42 -33 58 -48 34z"/>
<path d="M5365 4497 c-4 -14 -5 -36 -3 -48 3 -20 6 -18 16 16 7 24 8 43 2 49
-5 5 -11 -1 -15 -17z"/>
<path d="M4554 3680 l-681 -5 -48 -30 c-163 -101 -189 -322 -53 -452 36 -35
111 -72 145 -73 12 0 25 -4 28 -10 3 -5 -1 -10 -10 -10 -31 0 -93 -40 -134
-86 -42 -48 -71 -121 -71 -179 0 -93 69 -204 154 -247 22 -11 43 -22 45 -24 2
-2 -9 -18 -24 -36 -41 -49 -56 -93 -56 -164 0 -80 36 -153 99 -201 58 -44 97
-53 234 -53 l117 0 184 -307 c225 -376 223 -373 205 -384 -7 -5 -22 -9 -33 -9
-11 0 -62 -10 -112 -22 -83 -21 -94 -26 -104 -51 -14 -33 -2 -47 41 -47 15 0
30 -4 35 -9 29 -27 210 -52 530 -72 207 -13 755 -6 885 11 41 5 120 14 175 19
101 9 115 12 170 36 17 7 47 16 68 20 71 13 36 75 -42 75 -16 0 -34 6 -40 14
-12 15 -25 17 -191 36 -58 7 -111 14 -118 16 -17 5 -12 15 221 387 l179 287
127 0 c111 0 132 3 176 24 55 25 109 80 133 135 34 79 10 215 -47 265 -28 25
-27 31 12 47 17 7 53 33 79 57 109 102 116 270 15 379 -42 45 -101 82 -134 84
-16 0 -16 1 2 9 11 4 40 14 65 21 68 20 151 107 174 183 44 140 -24 285 -163
350 -45 21 -55 21 -801 21 -415 1 -1061 -2 -1436 -5z m1791 -547 c130 -8 130
-8 55 -14 -108 -9 -2109 -10 -2210 -1 l-85 7 80 6 c122 8 2012 10 2160 2z m55
-501 c64 -6 64 -7 -50 -13 -63 -3 -529 -7 -1036 -8 -862 -1 -1202 4 -1188 18
3 3 62 8 132 11 184 7 2065 1 2142 -8z m-375 -519 c267 -15 36 -22 -740 -22
-736 -1 -980 5 -780 20 120 8 1371 10 1520 2z m10 -112 l70 -6 -109 -8 c-141
-9 -1315 -9 -1426 0 -82 8 -83 8 -35 14 67 8 1411 8 1500 0z m-30 -90 c47 -9
-1212 -21 -1365 -13 -68 4 -96 8 -80 13 33 9 1394 10 1445 0z m-80 -91 c17 -4
-208 -9 -500 -10 -291 -1 -555 -2 -585 -3 -125 -2 -215 4 -195 13 25 11 1238
11 1280 0z m-60 -109 c23 -5 -191 -10 -495 -12 -558 -4 -719 -1 -665 11 41 10
1110 11 1160 1z m-80 -101 l60 -3 -60 -7 c-80 -10 -929 -12 -991 -2 l-49 7 65
5 c70 5 876 6 975 0z m-63 -97 l83 -8 -65 -6 c-92 -9 -814 -11 -891 -1 l-64 7
65 5 c117 9 788 12 872 3z"/>
</g>
</svg>
