<?xml version="1.0" standalone="no"?>
<!DOCTYPE svg PUBLIC "-//W3C//DTD SVG 20010904//EN"
 "http://www.w3.org/TR/2001/REC-SVG-20010904/DTD/svg10.dtd">
<svg version="1.0" xmlns="http://www.w3.org/2000/svg"
 width="500.000000pt" height="500.000000pt" viewBox="0 0 500.000000 500.000000"
 preserveAspectRatio="xMidYMid meet">

<g transform="translate(0.000000,500.000000) scale(0.100000,-0.100000)"
fill="#000000" stroke="none">
<path d="M795 4984 c-45 -23 -76 -55 -96 -99 -18 -39 -19 -127 -19 -2385 l0
-2346 22 -44 c13 -24 40 -58 61 -74 l39 -31 1698 0 1698 0 39 31 c21 16 48 50
60 74 l23 44 0 1841 c0 1705 -1 1842 -17 1865 -9 14 -51 61 -92 105 -97 102
-261 293 -261 303 0 4 -31 39 -68 77 -86 89 -342 380 -342 390 0 7 -39 49
-191 207 l-56 58 -1234 0 c-1099 0 -1237 -2 -1264 -16z m2347 -710 l3 -516 33
-29 32 -29 450 0 450 0 0 -1010 0 -1010 -789 0 -790 0 21 46 c14 33 19 60 15
90 -12 109 -139 183 -240 140 -18 -7 -93 -72 -168 -145 l-137 -131 -53 1 -54
0 152 147 153 147 -550 550 -550 550 -115 -120 -114 -120 0 50 c0 50 0 50 101
154 130 135 149 181 112 269 -32 78 -100 120 -175 108 l-39 -6 0 690 0 690
1125 0 1124 0 3 -516z m-513 -2835 c132 -23 238 -96 289 -199 23 -48 27 -67
27 -150 0 -82 -4 -103 -26 -151 -36 -76 -87 -130 -160 -169 -82 -43 -154 -59
-271 -60 l-98 0 0 -205 0 -205 -125 0 -125 0 0 564 0 564 88 7 c48 3 92 8 97
10 24 8 245 4 304 -6z m-940 -196 c161 -514 181 -578 181 -588 0 -6 24 -89 54
-183 l53 -172 -132 0 -132 0 -44 150 -44 150 -169 -2 -169 -3 -40 -147 -41
-148 -123 0 c-83 0 -123 4 -123 11 0 6 16 62 35 123 19 62 39 132 44 156 5 25
39 142 76 260 37 118 92 294 121 390 30 96 56 181 59 188 3 9 46 12 168 12
l164 0 62 -197z m1681 -53 c0 -158 4 -250 10 -250 5 0 21 18 36 41 14 23 46
69 71 102 25 34 49 72 54 85 5 13 48 79 95 148 l85 124 145 0 c79 0 144 -2
144 -4 0 -17 -214 -300 -331 -438 l-32 -37 84 -138 c46 -76 107 -174 136 -217
29 -44 65 -104 80 -135 15 -31 42 -79 60 -108 18 -29 33 -55 33 -58 0 -3 -63
-5 -139 -5 l-140 0 -92 163 c-51 89 -99 168 -106 175 -7 7 -16 25 -19 39 -7
27 -51 110 -63 117 -3 2 -30 -24 -59 -59 l-52 -64 0 -185 0 -186 -125 0 -125
0 0 570 0 570 125 0 125 0 0 -250z"/>
<path d="M2065 3528 c-2 -7 -19 -61 -37 -119 -33 -104 -34 -106 -58 -97 -154
57 -386 47 -540 -24 -73 -33 -180 -99 -180 -111 0 -4 241 -249 537 -544 l536
-537 29 35 c38 44 105 179 124 249 33 124 28 317 -11 431 l-13 35 119 37 c98
31 119 41 119 57 0 10 -5 22 -10 25 -6 4 -62 -9 -124 -29 -63 -20 -116 -36
-119 -36 -3 0 -19 24 -35 54 -71 131 -166 227 -296 297 -31 17 -56 33 -56 37
0 3 16 57 35 119 20 62 33 118 30 123 -9 14 -45 12 -50 -2z m-258 -382 c56
-36 57 -114 3 -167 -39 -39 -114 -41 -154 -4 -71 66 -50 168 40 194 37 11 71
4 111 -23z m457 -452 c27 -10 58 -73 58 -115 -2 -106 -117 -153 -191 -78 -72
71 -21 199 79 199 21 0 45 -3 54 -6z"/>
<path d="M2403 1254 c-10 -4 -13 -50 -13 -180 l0 -174 73 0 c95 0 140 14 187
56 46 42 64 89 58 154 -10 98 -72 142 -208 147 -47 1 -91 0 -97 -3z"/>
<path d="M1442 1215 c-6 -22 -14 -53 -17 -70 -4 -16 -27 -103 -52 -193 -25
-89 -44 -165 -41 -168 3 -2 61 -3 130 -2 l125 3 -34 115 c-19 63 -49 169 -67
235 l-34 120 -10 -40z"/>
</g>
</svg>
